<?xml version="1.0" encoding="UTF-8" standalone="no"?>
<!-- Created with Inkscape (http://www.inkscape.org/) -->

<svg
   xmlns:dc="http://purl.org/dc/elements/1.1/"
   xmlns:cc="http://creativecommons.org/ns#"
   xmlns:rdf="http://www.w3.org/1999/02/22-rdf-syntax-ns#"
   xmlns:svg="http://www.w3.org/2000/svg"
   xmlns="http://www.w3.org/2000/svg"
   xmlns:sodipodi="http://sodipodi.sourceforge.net/DTD/sodipodi-0.dtd"
   xmlns:inkscape="http://www.inkscape.org/namespaces/inkscape"
   width="7.1477633mm"
   height="6.8943667mm"
   viewBox="0 0 25.32672 24.428858"
   id="svg6478"
   version="1.1"
   inkscape:version="0.91 r13725"
   sodipodi:docname="piz_ing_pepperoni.svg">
  <defs
     id="defs6480" />
  <sodipodi:namedview
     id="base"
     pagecolor="#ffffff"
     bordercolor="#666666"
     borderopacity="1.0"
     inkscape:pageopacity="0.0"
     inkscape:pageshadow="2"
     inkscape:zoom="0.35"
     inkscape:cx="721.94907"
     inkscape:cy="1049.3573"
     inkscape:document-units="px"
     inkscape:current-layer="layer1"
     showgrid="false"
     fit-margin-top="0"
     fit-margin-left="0"
     fit-margin-right="0"
     fit-margin-bottom="0"
     inkscape:window-width="1920"
     inkscape:window-height="1017"
     inkscape:window-x="1912"
     inkscape:window-y="-8"
     inkscape:window-maximized="1" />
  <metadata
     id="metadata6483">
    <rdf:RDF>
      <cc:Work
         rdf:about="">
        <dc:format>image/svg+xml</dc:format>
        <dc:type
           rdf:resource="http://purl.org/dc/dcmitype/StillImage" />
        <dc:title></dc:title>
      </cc:Work>
    </rdf:RDF>
  </metadata>
  <g
     inkscape:label="Layer 1"
     inkscape:groupmode="layer"
     id="layer1"
     transform="translate(772.66336,-1557.2906)">
    <g
       id="g16845"
       transform="matrix(0.56836846,0,0,-0.61537579,-747.8842,1570.1098)"
       style="fill:#bb1321;fill-opacity:1">
      <path
         d="m 0,0 c 0,-10.419 -9.76,-18.866 -21.798,-18.866 -12.039,0 -21.799,8.447 -21.799,18.866 0,10.419 9.76,18.866 21.799,18.866 C -9.76,18.866 0,10.419 0,0"
         style="fill:#bb1321;fill-opacity:1;fill-rule:nonzero;stroke:none"
         id="path16847"
         inkscape:connector-curvature="0" />
    </g>
    <g
       id="g16849"
       transform="matrix(0.56836846,0,0,-0.61537579,-747.33664,1568.9003)"
       style="fill:#eb3c4a;fill-opacity:1">
      <path
         d="m 0,0 c 0,-10.419 -9.759,-18.866 -21.798,-18.866 -12.039,0 -21.799,8.447 -21.799,18.866 0,10.419 9.76,18.866 21.799,18.866 C -9.759,18.866 0,10.419 0,0"
         style="fill:#eb3c4a;fill-opacity:1;fill-rule:nonzero;stroke:none"
         id="path16851"
         inkscape:connector-curvature="0" />
    </g>
    <g
       id="g15489-9-6"
       transform="matrix(0.28237286,0,0,-0.29939187,-765.39927,1575.9478)"
       style="fill:#d61626;fill-opacity:1">
      <path
         d="M 0,0 C -1.581,0.882 -2.148,2.879 -1.267,4.46 -0.385,6.041 1.612,6.608 3.193,5.726 4.774,4.845 5.341,2.848 4.46,1.267 3.578,-0.315 1.581,-0.882 0,0"
         style="fill:#d61626;fill-opacity:1;fill-rule:nonzero;stroke:none"
         id="path15491-6-2"
         inkscape:connector-curvature="0" />
    </g>
    <g
       id="g15509-3-7"
       transform="matrix(0.28237286,0,0,-0.29939187,-768.33318,1567.5683)"
       style="fill:#870e18;fill-opacity:1">
      <path
         d="M 0,0 C -1.771,0.988 -2.407,3.225 -1.419,4.996 -0.431,6.768 1.806,7.403 3.577,6.415 5.349,5.427 5.984,3.191 4.996,1.419 4.008,-0.352 1.772,-0.988 0,0"
         style="fill:#870e18;fill-opacity:1;fill-rule:nonzero;stroke:none"
         id="path15511-7-3"
         inkscape:connector-curvature="0" />
    </g>
    <g
       id="g15517-4-0"
       transform="matrix(0.28237286,0,0,-0.29939187,-756.01587,1563.8868)"
       style="fill:#870e18;fill-opacity:1">
      <path
         d="M 0,0 C -1.694,0.945 -2.302,3.084 -1.357,4.778 -0.412,6.473 1.727,7.08 3.421,6.135 5.115,5.191 5.723,3.051 4.778,1.357 3.834,-0.337 1.694,-0.945 0,0"
         style="fill:#870e18;fill-opacity:1;fill-rule:nonzero;stroke:none"
         id="path15519-4-0"
         inkscape:connector-curvature="0" />
    </g>
    <g
       id="g15533-1-4"
       transform="matrix(0.28237286,0,0,-0.29939187,-756.17511,1576.5341)"
       style="fill:#ee5a65;fill-opacity:1">
      <path
         d="m 0,0 c -2.033,1.134 -2.762,3.701 -1.628,5.734 1.133,2.033 3.7,2.762 5.733,1.628 C 6.138,6.229 6.868,3.662 5.734,1.629 4.6,-0.405 2.033,-1.134 0,0"
         style="fill:#ee5a65;fill-opacity:1;fill-rule:nonzero;stroke:none"
         id="path15535-9-2"
         inkscape:connector-curvature="0" />
    </g>
    <g
       id="g15545-4-1"
       transform="matrix(0.21509424,0,0,-0.22805828,-763.6722,1562.5739)"
       style="fill:#f38b93;fill-opacity:1">
      <path
         d="M 0,0 C -2.56,1.427 -3.478,4.66 -2.051,7.22 -0.623,9.781 2.61,10.699 5.17,9.271 7.73,7.844 8.648,4.611 7.22,2.051 5.793,-0.509 2.56,-1.428 0,0"
         style="fill:#f38b93;fill-opacity:1;fill-rule:nonzero;stroke:none"
         id="path15547-4-4"
         inkscape:connector-curvature="0" />
    </g>
    <g
       id="g15557-7-2"
       transform="matrix(0.28237286,0,0,-0.29939187,-760.42711,1570.8301)"
       style="fill:#870e18;fill-opacity:1">
      <path
         d="M 0,0 C -1.771,0.988 -2.407,3.225 -1.419,4.996 -0.431,6.768 1.806,7.403 3.577,6.415 5.349,5.427 5.984,3.191 4.996,1.419 4.008,-0.352 1.772,-0.988 0,0"
         style="fill:#870e18;fill-opacity:1;fill-rule:nonzero;stroke:none"
         id="path15559-1-7"
         inkscape:connector-curvature="0" />
    </g>
    <g
       id="g15565-7-0"
       transform="matrix(0.28237286,0,0,-0.29939187,-751.14547,1569.8271)"
       style="fill:#ad121f;fill-opacity:1">
      <path
         d="M 0,0 C -1.694,0.945 -2.302,3.084 -1.357,4.778 -0.412,6.473 1.727,7.08 3.421,6.135 5.115,5.191 5.723,3.051 4.778,1.357 3.833,-0.337 1.694,-0.945 0,0"
         style="fill:#ad121f;fill-opacity:1;fill-rule:nonzero;stroke:none"
         id="path15567-5-3"
         inkscape:connector-curvature="0" />
    </g>
  </g>
</svg>
